<svg xmlns="http://www.w3.org/2000/svg" width="678.879" height="350.001" viewBox="0 0 678.879 350.001">
  <path id="Union_1" data-name="Union 1" d="M263.269,296.485A554.791,554.791,0,0,1,210.455,246h41.752c22.818,22.258,50.464,44.962,82.172,67.484,98.715-70.114,136.83-126.619,151.421-161.676,14.038-33.738,13.405-63.644-1.83-86.486C469.437,43.535,442.795,30,414.439,30c-23.062,0-43.254,9.141-56.857,25.74l-23.2,28.314-23.2-28.314C297.573,39.142,277.382,30,254.319,30c-28.352,0-54.993,13.535-69.528,35.325A70.6,70.6,0,0,0,173.512,96H143.344a100.811,100.811,0,0,1,37.861-70.576A112.312,112.312,0,0,1,197.589,14.5a117.735,117.735,0,0,1,18.023-7.968,119.916,119.916,0,0,1,19.1-4.878A117.924,117.924,0,0,1,254.319,0,112.055,112.055,0,0,1,276.5,2.2,104.334,104.334,0,0,1,297.788,8.92a98.12,98.12,0,0,1,36.591,27.8,98.139,98.139,0,0,1,36.592-27.8A104.33,104.33,0,0,1,392.26,2.2,111.977,111.977,0,0,1,414.439,0a118.932,118.932,0,0,1,53.222,12.657,111.97,111.97,0,0,1,22.9,15.272,103.153,103.153,0,0,1,18.365,20.747,99.336,99.336,0,0,1,11.392,23.1,105.152,105.152,0,0,1,5.315,26.988c1.335,20.282-2.749,42.006-12.136,64.568a242.16,242.16,0,0,1-22.85,41.786,372.2,372.2,0,0,1-36.4,45.294,571.37,571.37,0,0,1-51.555,48.42c-20.313,16.974-43.3,34.188-68.313,51.167A854.123,854.123,0,0,1,263.269,296.485ZM591.88,246V172.976q-.427.024-.86.024h-24.64a15,15,0,0,1,0-30h24.64q.433,0,.86.024V85.5a15,15,0,1,1,30,0V246a15,15,0,1,1-30,0ZM57,246V85.5a15,15,0,0,1,30,0v57.524q.427-.024.859-.024H334.38a15,15,0,0,1,0,30H87.86q-.433,0-.859-.024V246a15,15,0,1,1-30,0Zm591.88-45.5v-76a15,15,0,1,1,30,0v76a15,15,0,1,1-30,0ZM0,200.5v-76a15,15,0,1,1,30,0v76a15,15,0,1,1-30,0Z" fill="#fff"/>
</svg>
